<svg width="320" height="100" viewBox="0 0 320 100" fill="none" xmlns="http://www.w3.org/2000/svg">
  <defs>
    <linearGradient id="shieldGrad" x1="42" y1="6" x2="42" y2="94" gradientUnits="userSpaceOnUse">
      <stop offset="0%" stop-color="hsl(45, 100%, 65%)" />
      <stop offset="50%" stop-color="hsl(42, 90%, 50%)" />
      <stop offset="100%" stop-color="hsl(38, 85%, 30%)" />
    </linearGradient>
    <linearGradient id="innerGrad" x1="42" y1="14" x2="42" y2="86" gradientUnits="userSpaceOnUse">
      <stop offset="0%" stop-color="hsl(228, 45%, 12%)" />
      <stop offset="100%" stop-color="hsl(228, 45%, 5%)" />
    </linearGradient>
    <linearGradient id="circuitGrad" x1="22" y1="22" x2="62" y2="62" gradientUnits="userSpaceOnUse">
      <stop offset="0%" stop-color="hsl(42, 90%, 60%)" stop-opacity="0.8" />
      <stop offset="100%" stop-color="hsl(42, 90%, 40%)" stop-opacity="0.4" />
    </linearGradient>
  </defs>

  <g transform="translate(4, 6) scale(1.83)">
    <path d="M24 2L6 10v12c0 11.1 7.7 21.4 18 24 10.3-2.6 18-12.9 18-24V10L24 2z" fill="url(#shieldGrad)" stroke="hsl(45, 100%, 70%)" stroke-width="0.5" stroke-opacity="0.6"/>
    <path d="M24 6L10 12.5v9.5c0 9 6 17.5 14 19.8 8-2.3 14-10.8 14-19.8v-9.5L24 6z" fill="url(#innerGrad)" stroke="hsl(42, 90%, 50%)" stroke-width="0.3" stroke-opacity="0.4"/>
    <circle cx="24" cy="20" r="5" fill="none" stroke="url(#circuitGrad)" stroke-width="1.2"/>
    <circle cx="24" cy="20" r="2" fill="hsl(42, 90%, 55%)"/>
    <line x1="24" y1="15" x2="24" y2="10" stroke="url(#circuitGrad)" stroke-width="0.8"/>
    <line x1="24" y1="25" x2="24" y2="30" stroke="url(#circuitGrad)" stroke-width="0.8"/>
    <line x1="19" y1="20" x2="14" y2="20" stroke="url(#circuitGrad)" stroke-width="0.8"/>
    <line x1="29" y1="20" x2="34" y2="20" stroke="url(#circuitGrad)" stroke-width="0.8"/>
    <line x1="20.5" y1="16.5" x2="17" y2="13" stroke="url(#circuitGrad)" stroke-width="0.6"/>
    <line x1="27.5" y1="16.5" x2="31" y2="13" stroke="url(#circuitGrad)" stroke-width="0.6"/>
    <line x1="20.5" y1="23.5" x2="17" y2="27" stroke="url(#circuitGrad)" stroke-width="0.6"/>
    <line x1="27.5" y1="23.5" x2="31" y2="27" stroke="url(#circuitGrad)" stroke-width="0.6"/>
    <circle cx="14" cy="20" r="1" fill="hsl(42, 90%, 55%)" fill-opacity="0.7"/>
    <circle cx="34" cy="20" r="1" fill="hsl(42, 90%, 55%)" fill-opacity="0.7"/>
    <circle cx="24" cy="10" r="1" fill="hsl(42, 90%, 55%)" fill-opacity="0.7"/>
    <circle cx="24" cy="30" r="1" fill="hsl(42, 90%, 55%)" fill-opacity="0.7"/>
    <rect x="18" y="33" width="12" height="1.5" rx="0.75" fill="hsl(42, 90%, 50%)" fill-opacity="0.5"/>
    <rect x="20" y="36" width="8" height="1" rx="0.5" fill="hsl(42, 90%, 50%)" fill-opacity="0.3"/>
  </g>

  <text x="110" y="48" font-family="'Space Grotesk', 'Segoe UI', Arial, sans-serif" font-size="32" font-weight="700" letter-spacing="6" fill="#e2e8f0">AEGIS</text>
  <text x="248" y="48" font-family="'Space Grotesk', 'Segoe UI', Arial, sans-serif" font-size="32" font-weight="700" letter-spacing="6" fill="hsl(42, 90%, 50%)">AI</text>

  <line x1="110" y1="58" x2="145" y2="58" stroke="hsl(42, 90%, 50%)" stroke-width="0.5" stroke-opacity="0.3"/>
  <text x="150" y="67" font-family="'Space Grotesk', 'Segoe UI', Arial, sans-serif" font-size="10" font-weight="400" letter-spacing="8" fill="#94a3b8" text-transform="uppercase">CYBER DEFENSE</text>
  <line x1="285" y1="58" x2="310" y2="58" stroke="hsl(42, 90%, 50%)" stroke-width="0.5" stroke-opacity="0.3"/>
</svg>
